<svg width="41" height="40" viewBox="0 0 41 40" fill="none" xmlns="http://www.w3.org/2000/svg">
<path d="M40.4 19.9999C40.4 25.5228 38.1614 30.5228 34.5421 34.1421C30.9228 37.7614 25.9228 39.9999 20.4 39.9999C14.8771 39.9999 9.87712 37.7614 6.25783 34.1421C2.63854 30.5228 0.399963 25.5228 0.399963 19.9999C0.399963 14.4771 2.63854 9.47709 6.25783 5.8578C9.87712 2.23852 14.8771 -6.10352e-05 20.4 -6.10352e-05C25.9228 -6.10352e-05 30.9228 2.23852 34.5421 5.8578C38.1614 9.47709 40.4 14.4771 40.4 19.9999Z" fill="#4D5AE5"/>
<g clip-path="url(#clip0_670801_454)">
<path d="M23.0647 14.6566H24.5253V12.1126C24.2733 12.0779 23.4067 11.9999 22.3973 11.9999C20.2913 11.9999 18.8487 13.3246 18.8487 15.7593V17.9999H16.5247V20.8439H18.8487V27.9999H21.698V20.8446H23.928L24.282 18.0006H21.6973V16.0413C21.698 15.2193 21.9193 14.6566 23.0647 14.6566Z" fill="#F4F4FD"/>
</g>
<defs>
<clipPath id="clip0_670801_454">
<rect width="16" height="16" fill="white" transform="translate(12.4 11.9999)"/>
</clipPath>
</defs>
</svg>
