<svg width="41" height="40" viewBox="0 0 41 40" fill="none" xmlns="http://www.w3.org/2000/svg">
<path d="M40.4 19.9999C40.4 25.5228 38.1614 30.5228 34.5421 34.1421C30.9228 37.7614 25.9228 39.9999 20.4 39.9999C14.8771 39.9999 9.87712 37.7614 6.25783 34.1421C2.63854 30.5228 0.399963 25.5228 0.399963 19.9999C0.399963 14.4771 2.63854 9.47709 6.25783 5.8578C9.87712 2.23852 14.8771 -6.10352e-05 20.4 -6.10352e-05C25.9228 -6.10352e-05 30.9228 2.23852 34.5421 5.8578C38.1614 9.47709 40.4 14.4771 40.4 19.9999Z" fill="#4D5AE5"/>
<g clip-path="url(#clip0_670801_442)">
<path d="M28.3843 16.704C28.3468 15.8538 28.2093 15.2694 28.0124 14.7629C27.8092 14.2253 27.4966 13.7441 27.0871 13.344C26.687 12.9376 26.2026 12.6219 25.6712 12.4219C25.1618 12.225 24.5804 12.0875 23.7303 12.05C22.8738 12.0093 22.6019 11.9999 20.4296 11.9999C18.2573 11.9999 17.9854 12.0093 17.1321 12.0468C16.2819 12.0843 15.6975 12.2219 15.1911 12.4187C14.6534 12.6219 14.1722 12.9344 13.7721 13.344C13.3657 13.7441 13.0501 14.2285 12.85 14.7599C12.6531 15.2694 12.5156 15.8507 12.4781 16.7008C12.4374 17.5573 12.428 17.8292 12.428 20.0015C12.428 22.1738 12.4374 22.4457 12.4749 23.299C12.5124 24.1492 12.65 24.7336 12.8469 25.2401C13.0501 25.7777 13.3657 26.259 13.7721 26.6591C14.1722 27.0654 14.6566 27.3811 15.188 27.5811C15.6975 27.778 16.2788 27.9155 17.129 27.953C17.9822 27.9906 18.2542 27.9999 20.4265 27.9999C22.5988 27.9999 22.8707 27.9906 23.7241 27.953C24.5742 27.9155 25.1587 27.778 25.665 27.5811C26.7403 27.1654 27.5904 26.3152 28.0061 25.2401C28.203 24.7306 28.3406 24.1492 28.378 23.299C28.4155 22.4457 28.4249 22.1738 28.4249 20.0015C28.4249 17.8292 28.4217 17.5573 28.3843 16.704ZM26.9434 23.2365C26.909 24.0179 26.7778 24.4399 26.6684 24.7212C26.3995 25.4182 25.8463 25.9714 25.1493 26.2403C24.868 26.3497 24.4429 26.4809 23.6646 26.5152C22.8207 26.5528 22.5676 26.5621 20.4328 26.5621C18.298 26.5621 18.0417 26.5528 17.2008 26.5152C16.4194 26.4809 15.9975 26.3497 15.7162 26.2403C15.3693 26.1121 15.0536 25.9089 14.7973 25.6432C14.5316 25.3838 14.3284 25.0712 14.2002 24.7243C14.0908 24.443 13.9596 24.0179 13.9253 23.2397C13.8877 22.3958 13.8784 22.1425 13.8784 20.0077C13.8784 17.8729 13.8877 17.6166 13.9253 16.7759C13.9596 15.9945 14.0908 15.5725 14.2002 15.2912C14.3284 14.9442 14.5316 14.6286 14.8004 14.3722C15.0598 14.1066 15.3723 13.9034 15.7193 13.7753C16.0006 13.6659 16.4258 13.5347 17.204 13.5002C18.0479 13.4627 18.3011 13.4533 20.4358 13.4533C22.5738 13.4533 22.8269 13.4627 23.6678 13.5002C24.4492 13.5347 24.8711 13.6659 25.1524 13.7753C25.4993 13.9034 25.815 14.1066 26.0713 14.3722C26.337 14.6317 26.5402 14.9442 26.6684 15.2912C26.7778 15.5725 26.909 15.9975 26.9434 16.7759C26.9809 17.6198 26.9903 17.8729 26.9903 20.0077C26.9903 22.1425 26.9809 22.3926 26.9434 23.2365Z" fill="#F4F4FD"/>
<path d="M20.4296 15.8913C18.1605 15.8913 16.3195 17.7322 16.3195 20.0015C16.3195 22.2707 18.1605 24.1117 20.4296 24.1117C22.6989 24.1117 24.5398 22.2707 24.5398 20.0015C24.5398 17.7322 22.6989 15.8913 20.4296 15.8913ZM20.4296 22.6676C18.9575 22.6676 17.7635 21.4737 17.7635 20.0015C17.7635 18.5293 18.9575 17.3353 20.4296 17.3353C21.9018 17.3353 23.0958 18.5293 23.0958 20.0015C23.0958 21.4737 21.9018 22.6676 20.4296 22.6676Z" fill="#F4F4FD"/>
<path d="M25.662 15.7288C25.662 16.2587 25.2324 16.6884 24.7023 16.6884C24.1724 16.6884 23.7428 16.2587 23.7428 15.7288C23.7428 15.1988 24.1724 14.7693 24.7023 14.7693C25.2324 14.7693 25.662 15.1988 25.662 15.7288Z" fill="#F4F4FD"/>
</g>
<defs>
<clipPath id="clip0_670801_442">
<rect width="16" height="16" fill="white" transform="translate(12.4 11.9999)"/>
</clipPath>
</defs>
</svg>
