<svg width="41" height="40" viewBox="0 0 41 40" fill="none" xmlns="http://www.w3.org/2000/svg">
<path d="M40.4 19.9999C40.4 25.5228 38.1614 30.5228 34.5421 34.1421C30.9228 37.7614 25.9228 39.9999 20.4 39.9999C14.8771 39.9999 9.87712 37.7614 6.25783 34.1421C2.63854 30.5228 0.399963 25.5228 0.399963 19.9999C0.399963 14.4771 2.63854 9.47709 6.25783 5.8578C9.87712 2.23852 14.8771 -6.10352e-05 20.4 -6.10352e-05C25.9228 -6.10352e-05 30.9228 2.23852 34.5421 5.8578C38.1614 9.47709 40.4 14.4771 40.4 19.9999Z" fill="#4D5AE5"/>
<g clip-path="url(#clip0_670801_458)">
<path d="M28.3961 28V27.9993H28.4001V22.1313C28.4001 19.2606 27.7821 17.0493 24.4261 17.0493C22.8127 17.0493 21.7301 17.9346 21.2881 18.774H21.2414V17.3173H18.0594V27.9993H21.3727V22.71C21.3727 21.3173 21.6367 19.9706 23.3614 19.9706C25.0607 19.9706 25.0861 21.56 25.0861 22.7993V28H28.3961Z" fill="#F4F4FD"/>
<path d="M12.664 17.3179H15.9813V27.9999H12.664V17.3179Z" fill="#F4F4FD"/>
<path d="M14.3214 11.9999C13.2607 11.9999 12.4 12.8606 12.4 13.9213C12.4 14.9819 13.2607 15.8606 14.3214 15.8606C15.382 15.8606 16.2427 14.9819 16.2427 13.9213C16.242 12.8606 15.3814 11.9999 14.3214 11.9999V11.9999Z" fill="#F4F4FD"/>
</g>
<defs>
<clipPath id="clip0_670801_458">
<rect width="16" height="16" fill="white" transform="translate(12.4 11.9999)"/>
</clipPath>
</defs>
</svg>
