<svg width="41" height="40" viewBox="0 0 41 40" fill="none" xmlns="http://www.w3.org/2000/svg">
<path d="M40.4 19.9999C40.4 25.5228 38.1614 30.5228 34.5421 34.1421C30.9228 37.7614 25.9228 39.9999 20.4 39.9999C14.8771 39.9999 9.87712 37.7614 6.25783 34.1421C2.63854 30.5228 0.399963 25.5228 0.399963 19.9999C0.399963 14.4771 2.63854 9.47709 6.25783 5.8578C9.87712 2.23852 14.8771 -6.10352e-05 20.4 -6.10352e-05C25.9228 -6.10352e-05 30.9228 2.23852 34.5421 5.8578C38.1614 9.47709 40.4 14.4771 40.4 19.9999Z" fill="#4D5AE5"/>
<g clip-path="url(#clip0_670801_448)">
<path d="M28.4 15.0389C27.805 15.2999 27.171 15.4729 26.51 15.5569C27.19 15.1509 27.709 14.5129 27.953 13.7439C27.319 14.1219 26.619 14.3889 25.873 14.5379C25.271 13.8969 24.413 13.4999 23.477 13.4999C21.661 13.4999 20.199 14.9739 20.199 16.7809C20.199 17.0409 20.221 17.2909 20.275 17.5289C17.548 17.3959 15.135 16.0889 13.514 14.0979C13.231 14.5889 13.065 15.1509 13.065 15.7559C13.065 16.8919 13.65 17.8989 14.522 18.4819C13.995 18.4719 13.478 18.3189 13.04 18.0779C13.04 18.0879 13.04 18.1009 13.04 18.1139C13.04 19.7079 14.177 21.0319 15.668 21.3369C15.401 21.4099 15.11 21.4449 14.808 21.4449C14.598 21.4449 14.386 21.4329 14.187 21.3889C14.612 22.6879 15.818 23.6429 17.252 23.6739C16.136 24.5469 14.719 25.0729 13.185 25.0729C12.916 25.0729 12.658 25.0609 12.4 25.0279C13.853 25.9649 15.575 26.4999 17.432 26.4999C23.468 26.4999 26.768 21.4999 26.768 17.1659C26.768 17.0209 26.763 16.8809 26.756 16.7419C27.407 16.2799 27.954 15.7029 28.4 15.0389Z" fill="#F4F4FD"/>
</g>
<defs>
<clipPath id="clip0_670801_448">
<rect width="16" height="16" fill="white" transform="translate(12.4 11.9999)"/>
</clipPath>
</defs>
</svg>
