<!-- Generated by IcoMoon.io -->
<svg version="1.1" xmlns="http://www.w3.org/2000/svg" width="32" height="32" viewBox="0 0 32 32">
<title>facebooke</title>
<path fill="#4d5ae5" d="M31.532 16c0 4.311-1.747 8.213-4.572 11.038s-6.727 4.572-11.038 4.572c-4.311 0-8.213-1.747-11.038-4.572s-4.572-6.727-4.572-11.038c0-4.31 1.747-8.213 4.572-11.038s6.727-4.572 11.038-4.572c4.31 0 8.213 1.747 11.038 4.572s4.572 6.727 4.572 11.038z"></path>
<path fill="#f4f4fd" d="M18.002 11.83h1.14v-1.986c-0.197-0.027-0.873-0.088-1.661-0.088-1.644 0-2.77 1.034-2.77 2.934v1.749h-1.814v2.22h1.814v5.585h2.224v-5.585h1.741l0.276-2.22h-2.017v-1.529c0.001-0.642 0.173-1.081 1.067-1.081z"></path>
</svg>
