<!-- Generated by IcoMoon.io -->
<svg version="1.1" xmlns="http://www.w3.org/2000/svg" width="32" height="32" viewBox="0 0 32 32">
<title>insta</title>
<path fill="#4d5ae5" d="M31.532 16c0 4.311-1.747 8.213-4.572 11.038s-6.727 4.572-11.038 4.572c-4.311 0-8.213-1.747-11.038-4.572s-4.572-6.727-4.572-11.038c0-4.31 1.747-8.213 4.572-11.038s6.727-4.572 11.038-4.572c4.31 0 8.213 1.747 11.038 4.572s4.572 6.727 4.572 11.038z"></path>
<path fill="#f4f4fd" d="M22.154 13.428c-0.029-0.664-0.137-1.12-0.29-1.515-0.159-0.42-0.403-0.795-0.722-1.107-0.312-0.317-0.69-0.564-1.105-0.72-0.398-0.154-0.851-0.261-1.515-0.29-0.669-0.032-0.881-0.039-2.576-0.039s-1.908 0.007-2.574 0.037c-0.664 0.029-1.12 0.137-1.515 0.29-0.42 0.159-0.795 0.402-1.107 0.722-0.317 0.312-0.563 0.69-0.72 1.105-0.154 0.398-0.261 0.851-0.29 1.515-0.032 0.668-0.039 0.881-0.039 2.576s0.007 1.908 0.037 2.574c0.029 0.664 0.137 1.12 0.29 1.515 0.159 0.42 0.405 0.795 0.722 1.108 0.312 0.317 0.69 0.564 1.105 0.72 0.398 0.154 0.851 0.261 1.515 0.29 0.666 0.029 0.878 0.037 2.574 0.037s1.908-0.007 2.574-0.037c0.663-0.029 1.12-0.137 1.515-0.29 0.839-0.324 1.503-0.988 1.827-1.827 0.154-0.398 0.261-0.851 0.29-1.515 0.029-0.666 0.037-0.878 0.037-2.574s-0.003-1.908-0.032-2.574zM21.029 18.526c-0.027 0.61-0.129 0.939-0.215 1.159-0.21 0.544-0.642 0.976-1.186 1.186-0.22 0.085-0.551 0.188-1.159 0.215-0.659 0.029-0.856 0.037-2.522 0.037s-1.866-0.007-2.523-0.037c-0.61-0.027-0.939-0.129-1.159-0.215-0.271-0.1-0.517-0.259-0.717-0.466-0.207-0.202-0.366-0.446-0.466-0.717-0.085-0.22-0.188-0.551-0.215-1.159-0.029-0.659-0.037-0.856-0.037-2.523s0.007-1.866 0.037-2.522c0.027-0.61 0.129-0.939 0.215-1.159 0.1-0.271 0.259-0.517 0.468-0.717 0.202-0.207 0.446-0.366 0.717-0.466 0.22-0.085 0.551-0.188 1.159-0.215 0.659-0.029 0.856-0.037 2.522-0.037 1.669 0 1.866 0.007 2.523 0.037 0.61 0.027 0.939 0.129 1.159 0.215 0.271 0.1 0.517 0.259 0.717 0.466 0.207 0.203 0.366 0.446 0.466 0.717 0.085 0.22 0.188 0.551 0.215 1.159 0.029 0.659 0.037 0.856 0.037 2.522s-0.007 1.861-0.037 2.52z"></path>
<path fill="#f4f4fd" d="M15.945 12.793c-1.771 0-3.208 1.437-3.208 3.208s1.437 3.208 3.208 3.208c1.771 0 3.208-1.437 3.208-3.208s-1.437-3.208-3.208-3.208zM15.945 18.082c-1.149 0-2.081-0.932-2.081-2.081s0.932-2.081 2.081-2.081c1.149 0 2.081 0.932 2.081 2.081s-0.932 2.081-2.081 2.081z"></path>
<path fill="#f4f4fd" d="M20.029 12.666c0 0.414-0.335 0.749-0.749 0.749s-0.749-0.335-0.749-0.749c0-0.414 0.335-0.749 0.749-0.749s0.749 0.335 0.749 0.749z"></path>
</svg>
