<!-- Generated by IcoMoon.io -->
<svg version="1.1" xmlns="http://www.w3.org/2000/svg" width="32" height="32" viewBox="0 0 32 32">
<title>linkedin</title>
<path fill="#4d5ae5" d="M31.532 16c0 4.311-1.747 8.213-4.572 11.038s-6.727 4.572-11.038 4.572c-4.311 0-8.213-1.747-11.038-4.572s-4.572-6.727-4.572-11.038c0-4.31 1.747-8.213 4.572-11.038s6.727-4.572 11.038-4.572c4.31 0 8.213 1.747 11.038 4.572s4.572 6.727 4.572 11.038z"></path>
<path fill="#f4f4fd" d="M22.163 22.244v-0.001h0.003v-4.58c0-2.241-0.482-3.966-3.102-3.966-1.259 0-2.104 0.691-2.449 1.346h-0.036v-1.137h-2.483v8.337h2.586v-4.128c0-1.087 0.206-2.138 1.552-2.138 1.326 0 1.346 1.241 1.346 2.208v4.059h2.583z"></path>
<path fill="#f4f4fd" d="M9.884 13.907h2.589v8.337h-2.589v-8.337z"></path>
<path fill="#f4f4fd" d="M11.178 9.756c-0.828 0-1.5 0.672-1.5 1.5s0.672 1.514 1.5 1.514c0.828 0 1.5-0.686 1.5-1.514s-0.672-1.5-1.5-1.5v0z"></path>
</svg>
