<!-- Generated by IcoMoon.io -->
<svg version="1.1" xmlns="http://www.w3.org/2000/svg" width="32" height="32" viewBox="0 0 32 32">
<title>twitch</title>
<path fill="#4d5ae5" d="M31.532 16c0 4.311-1.747 8.213-4.572 11.038s-6.727 4.572-11.038 4.572c-4.311 0-8.213-1.747-11.038-4.572s-4.572-6.727-4.572-11.038c0-4.31 1.747-8.213 4.572-11.038s6.727-4.572 11.038-4.572c4.31 0 8.213 1.747 11.038 4.572s4.572 6.727 4.572 11.038z"></path>
<path fill="#f4f4fd" d="M22.166 12.128c-0.464 0.204-0.959 0.339-1.475 0.404 0.531-0.317 0.936-0.815 1.126-1.415-0.495 0.295-1.041 0.503-1.623 0.62-0.47-0.5-1.14-0.81-1.87-0.81-1.417 0-2.558 1.15-2.558 2.561 0 0.203 0.017 0.398 0.059 0.584-2.128-0.104-4.012-1.124-5.277-2.678-0.221 0.383-0.35 0.822-0.35 1.294 0 0.887 0.457 1.673 1.137 2.128-0.411-0.008-0.815-0.127-1.157-0.315 0 0.008 0 0.018 0 0.028 0 1.244 0.887 2.277 2.051 2.515-0.208 0.057-0.435 0.084-0.671 0.084-0.164 0-0.329-0.009-0.485-0.044 0.332 1.014 1.273 1.759 2.392 1.783-0.871 0.681-1.977 1.092-3.174 1.092-0.21 0-0.411-0.009-0.613-0.035 1.134 0.731 2.478 1.149 3.927 1.149 4.711 0 7.287-3.902 7.287-7.285 0-0.113-0.004-0.222-0.009-0.331 0.508-0.361 0.935-0.811 1.283-1.329z"></path>
</svg>
